<svg xmlns="http://www.w3.org/2000/svg" width="246.8" height="336.19"><style>.st0{fill:#ffdd0c}</style><path class="st0" d="M174.35 256.01c0 4.03-3.15 7.29-7.04 7.29H79.48c-3.89 0-7.04-3.26-7.04-7.29v-1.21c0-4.03 3.15-7.29 7.04-7.29h87.83c3.89 0 7.04 3.26 7.04 7.29zM170.91 280.3c0 4.02-3.15 7.29-7.04 7.29H82.92c-3.89 0-7.04-3.27-7.04-7.29v-1.21c0-4.03 3.15-7.29 7.04-7.29h80.95c3.89 0 7.04 3.26 7.04 7.29zM167.46 304.59c0 4.02-3.15 7.28-7.04 7.28H86.37c-3.89 0-7.04-3.26-7.04-7.28v-1.22c0-4.02 3.15-7.28 7.04-7.28h74.05c3.89 0 7.04 3.26 7.04 7.28zM135.2 320.4h-11.75v-.03h-12.4c-3.88 0-7.03 3.27-7.03 7.29v1.21c0 4.03 3.15 7.29 7.03 7.29h12.07v.03h12.08c3.89 0 7.05-3.27 7.05-7.29v-1.22c0-4.02-3.16-7.28-7.05-7.28M107.68 14.65a2.6 2.6 0 0 1-2.59-2.6 2.59 2.59 0 0 1 5.18 0 2.6 2.6 0 0 1-2.59 2.6m-8.21 5.04a42.88 42.88 0 0 0-19.55 20.15c-.58 1.24-2.01 1.9-3.27 1.42-1.25-.48-1.81-2.07-1.15-3.49a47.715 47.715 0 0 1 21.77-22.44c1.4-.7 3.01-.19 3.53 1.05s-.1 2.69-1.33 3.31M57.15 50.82c-20.84 3.23-37.99 18.19-44 38.4-.42 1.4-1.76 2.31-3.08 2-1.31-.31-2.07-1.85-1.61-3.4C15.02 65.8 33.7 49.5 56.4 45.99c1.6-.25 3.02.71 3.15 2.05.13 1.35-.95 2.56-2.4 2.78m125.84-13.59C172.65 15.25 150.36 0 124.46 0S76.28 15.25 65.94 37.25c-.42-.02-.82-.07-1.23-.07C28.97 37.18 0 63.67 0 96.33c0 29.85 24.23 54.47 55.67 58.5l8.43 69.1c.54 8.6 7.36 15.57 15.23 15.57h90.61c7.86 0 14.68-6.97 15.21-15.57l8.49-69.45c30.22-4.99 53.16-29.1 53.16-58.15 0-32.38-28.49-58.66-63.81-59.1"/></svg>